<svg width="3753" height="998" viewBox="0 0 3753 998" fill="none" xmlns="http://www.w3.org/2000/svg">
<path fill-rule="evenodd" clip-rule="evenodd" d="M617.776 139.162L1166.24 564.835C1192.44 586.119 1197.35 623.774 1177.7 651.607C1166.24 666.342 1148.23 674.528 1130.22 674.528C1117.13 674.528 1104.03 669.616 1092.57 661.43L973.052 568.11C974.689 581.207 974.689 594.305 974.689 607.402C974.689 821.876 799.507 997.057 585.032 997.057C370.557 997.057 195.374 821.876 195.374 607.402V576.296L97.1416 653.244C70.9462 672.891 31.653 667.979 12.0064 641.784C-7.64022 615.589 -2.72856 576.296 23.4669 556.649L193.737 424.036V60.5765C193.737 27.8325 221.57 0 254.314 0C287.059 0 314.891 27.8325 314.891 60.5765V204.65V329.078V481.338V569.747V605.765C314.891 753.114 436.045 874.267 583.395 874.267C730.744 874.267 851.898 754.751 851.898 605.765C851.898 530.454 820.791 456.78 763.488 406.026L616.139 291.422C601.404 278.325 578.483 278.325 562.111 291.422L490.073 350.362C450.78 381.468 393.478 353.636 393.478 302.883C393.478 284.873 401.664 266.864 416.399 255.404L563.748 139.162C578.483 126.065 601.404 126.065 617.776 139.162ZM562.144 488C509.753 496.186 468.823 537.116 460.637 589.507H537.586C550.684 589.507 562.144 578.046 562.144 564.949V488ZM704.582 591.143C696.395 538.753 655.465 497.823 603.074 489.637V566.585C603.074 579.683 614.535 591.143 627.632 591.143H704.582ZM560.507 733.581C508.116 725.395 467.186 684.465 459 632.074H535.949C549.047 632.074 560.507 643.535 560.507 656.632V733.581ZM603.074 733.581C655.465 725.395 696.395 684.465 704.582 632.074H627.632C614.535 632.074 603.074 643.535 603.074 656.632V733.581Z" fill="url(#paint0_linear_175_702)"/>
<path d="M1441.71 620.517V255.388H1536.8V482.326H1538.07C1550.74 462.041 1568.49 446.827 1591.31 434.149C1614.13 422.739 1639.49 416.399 1668.65 416.399C1720.63 416.399 1765 434.149 1804.31 470.915C1843.61 507.682 1862.63 558.394 1862.63 623.052C1862.63 682.639 1842.34 732.084 1803.04 771.386C1763.74 810.688 1713.02 829.705 1650.9 829.705C1588.78 829.705 1538.07 810.688 1498.76 772.654C1460.73 733.352 1441.71 682.639 1441.71 620.517ZM1568.49 709.263C1590.05 730.816 1617.94 742.227 1652.17 742.227C1686.4 742.227 1714.29 730.816 1735.84 709.263C1757.4 687.711 1767.54 658.551 1767.54 624.32C1767.54 588.822 1757.4 560.93 1735.84 539.377C1714.29 517.824 1686.4 506.414 1652.17 506.414C1617.94 506.414 1590.05 517.824 1568.49 539.377C1546.94 560.93 1536.8 590.089 1536.8 624.32C1536.8 658.551 1546.94 686.443 1568.49 709.263Z" fill="#383838"/>
<path d="M2306.36 626.857V819.564H2220.15V746.031H2218.88C2207.47 771.387 2189.72 791.672 2165.63 806.886C2141.54 822.099 2112.38 829.706 2079.42 829.706C2027.44 829.706 1983.07 811.957 1943.76 775.19C1904.46 738.424 1885.45 687.712 1885.45 623.053C1885.45 563.466 1905.73 514.022 1945.03 474.72C1984.34 435.418 2035.05 416.4 2097.17 416.4C2159.29 416.4 2210.01 435.418 2249.31 473.452C2288.61 511.486 2306.36 563.466 2306.36 626.857ZM2013.49 709.264C2035.05 730.817 2062.94 742.227 2097.17 742.227C2131.4 742.227 2159.29 730.817 2180.85 709.264C2202.4 687.712 2212.54 658.552 2212.54 624.321C2212.54 588.822 2202.4 560.931 2180.85 539.378C2159.29 517.825 2131.4 506.415 2097.17 506.415C2062.94 506.415 2035.05 517.825 2013.49 539.378C1991.94 560.931 1981.8 590.09 1981.8 624.321C1980.53 658.552 1991.94 686.444 2013.49 709.264Z" fill="#383838"/>
<path d="M2666.42 539.377H2572.6C2571.34 526.699 2565 517.824 2554.85 510.217C2543.44 502.61 2529.5 498.807 2511.75 498.807C2491.46 498.807 2476.25 502.61 2464.84 510.217C2453.43 517.824 2448.36 529.234 2448.36 541.912C2448.36 552.055 2453.43 559.662 2464.84 566.001C2476.25 572.34 2490.2 576.143 2506.68 578.679C2523.16 581.214 2542.18 583.75 2561.19 587.553C2580.21 590.089 2599.23 595.16 2615.71 601.499C2632.19 607.838 2646.14 619.249 2657.55 636.998C2668.96 653.479 2674.03 675.032 2674.03 701.656C2674.03 739.69 2658.82 770.118 2628.39 794.206C2597.96 818.295 2558.66 830.973 2509.21 830.973C2459.77 830.973 2420.47 819.562 2390.04 795.474C2359.61 771.386 2344.4 740.958 2343.13 704.192H2438.22C2439.48 733.352 2462.3 747.297 2506.68 747.297C2553.59 747.297 2577.68 732.084 2577.68 701.656C2577.68 691.514 2572.6 682.639 2561.19 677.568C2549.78 672.497 2535.84 667.425 2519.36 664.89C2502.87 662.354 2483.86 659.819 2464.84 657.283C2445.82 654.747 2426.8 649.676 2410.32 643.337C2393.84 636.998 2379.9 625.588 2368.49 609.106C2357.07 592.625 2352 571.072 2352 545.716C2352 507.681 2365.95 477.254 2395.11 453.166C2424.27 429.077 2461.04 417.667 2509.21 417.667C2556.12 417.667 2592.89 429.077 2622.05 453.166C2651.21 474.718 2666.42 503.878 2666.42 539.377Z" fill="#383838"/>
<path d="M2775.46 379.633C2757.71 379.633 2742.5 373.294 2731.09 361.884C2718.41 349.206 2713.34 335.26 2713.34 317.511C2713.34 299.761 2719.67 284.548 2731.09 271.869C2743.76 259.191 2757.71 254.12 2775.46 254.12C2793.21 254.12 2808.42 260.459 2819.83 271.869C2831.24 284.548 2837.58 299.761 2837.58 317.511C2837.58 335.26 2831.24 350.474 2819.83 361.884C2808.42 373.294 2793.21 379.633 2775.46 379.633ZM2822.37 819.563H2727.28V426.542H2822.37V819.563Z" fill="#383838"/>
<path d="M3183.69 808.154V762.512H3182.43C3157.07 804.35 3119.04 825.903 3067.05 825.903C3017.61 825.903 2975.77 809.421 2941.54 775.191C2907.31 742.228 2890.83 692.783 2890.83 626.857V426.543H2985.91V625.589C2985.91 662.355 2994.79 690.247 3012.54 707.997C3030.29 727.014 3054.38 735.888 3084.8 735.888C3115.23 735.888 3139.32 725.746 3157.07 706.729C3174.82 687.712 3183.69 659.82 3183.69 624.321V426.543H3278.78V805.618C3278.78 870.276 3261.03 918.453 3224.26 950.148C3188.77 981.844 3140.59 997.057 3082.27 997.057C3034.09 997.057 2993.52 985.647 2959.29 962.826C2925.06 940.006 2903.51 907.043 2892.1 861.402H2987.18C3002.4 896.9 3034.09 914.65 3082.27 914.65C3149.46 915.917 3183.69 880.419 3183.69 808.154Z" fill="#383838"/>
<path d="M3693.36 474.72C3732.66 514.022 3752.94 563.466 3752.94 623.053C3752.94 682.64 3732.66 732.085 3693.36 771.387C3654.05 810.689 3603.34 829.706 3541.22 829.706C3479.09 829.706 3428.38 810.689 3389.08 771.387C3349.78 732.085 3329.49 682.64 3329.49 623.053C3329.49 563.466 3349.78 514.022 3389.08 474.72C3428.38 435.418 3479.09 416.4 3541.22 416.4C3603.34 416.4 3654.05 435.418 3693.36 474.72ZM3456.27 709.264C3477.83 730.817 3505.72 742.227 3539.95 742.227C3574.18 742.227 3602.07 730.817 3623.63 709.264C3645.18 687.712 3655.32 658.552 3655.32 624.321C3655.32 588.822 3645.18 560.931 3623.63 539.378C3602.07 517.825 3574.18 506.415 3539.95 506.415C3505.72 506.415 3477.83 517.825 3456.27 539.378C3434.72 560.931 3424.58 590.09 3424.58 624.321C3424.58 658.552 3434.72 686.444 3456.27 709.264Z" fill="#383838"/>
<defs>
<linearGradient id="paint0_linear_175_702" x1="595" y1="0" x2="595" y2="997" gradientUnits="userSpaceOnUse">
<stop stop-color="#F29024"/>
<stop offset="1" stop-color="#E06F2A"/>
</linearGradient>
</defs>
</svg>
